<svg width="56" height="54" viewBox="0 0 56 54" fill="none" xmlns="http://www.w3.org/2000/svg">
<g filter="url(#filter0_d_2_35)">
<rect x="4.97961" y="0.823517" width="47.0204" height="45.1765" rx="10" fill="url(#paint0_linear_2_35)"/>
</g>
<path d="M21.9278 35.0413H21.2062C19.2136 35.0413 17.5983 33.4393 17.5983 31.463V24.3063C17.5982 23.204 15.2531 22.6961 15.2531 22.6961C15.2531 22.6961 17.5983 22.2716 17.5983 21.0858V15.3605C17.5983 13.3842 19.2136 11.7822 21.2062 11.7822H21.9278M35.9088 11.7822H36.6304C38.6231 11.7822 40.2384 13.3842 40.2384 15.3605V22.5172C40.2384 23.6195 42.5836 24.1274 42.5836 24.1274C42.5836 24.1274 40.2384 24.5519 40.2384 25.7377L40.2384 31.463C40.2384 33.4393 38.6231 35.0413 36.6304 35.0413H35.9088" stroke="white" stroke-width="2.5" stroke-linecap="round" stroke-linejoin="round"/>
<path d="M51.5188 11.2C50.9281 10.2906 50.1406 9.82187 49.6813 9.61562C49.5313 9.55 49.4188 9.50312 49.3625 9.48437C49.2875 9.45625 49.2031 9.44687 49.1188 9.44687C47.9188 9.475 47.075 9.04375 46.55 8.11562C46.1281 7.375 46.0719 6.5875 46.0719 6.57812C46.0625 6.40937 45.9969 6.25937 45.8844 6.1375C43.475 3.55937 40.3156 2.2375 36.4719 2.21875H36.3781C32.7313 2.21875 29.5531 3.42812 28.3531 3.95312C27.5563 4.3 26.6563 4.69375 26.8438 5.47187C27.0219 6.19375 27.9125 6.18437 28.5594 6.175C29.1875 6.16562 30.0219 6.10937 30.9219 6.05312C32.2906 5.95937 33.8469 5.85625 35.0094 5.90312C35.8438 5.94062 36.4156 6.12812 36.5844 6.41875C36.8375 6.87812 36.3313 7.80625 36.1625 8.10625L36.1438 8.13437C35.8344 8.69687 35.7969 9.24062 35.8156 9.59687L34.8594 10.8062C34.7563 10.9375 34.7 11.1062 34.7094 11.275L34.7188 11.4156L24.4063 23.6031C24.1531 23.9031 24.1906 24.3437 24.4813 24.5969L26.6188 26.4156C26.75 26.5281 26.9094 26.5844 27.0781 26.5844H27.1344C27.3219 26.5656 27.4906 26.4812 27.6125 26.3312L27.6219 26.3219L38.0281 13.8531C38.225 13.8437 38.4125 13.7594 38.5344 13.6094L39.4344 12.55C39.6031 12.5312 39.8563 12.4562 40.0625 12.1562C40.2875 12.025 40.9719 11.7906 41.6281 11.6125C44.0656 11.3031 45.125 14.3031 45.1719 14.425C45.2094 14.5469 45.2938 14.6594 45.3969 14.7437L47.0188 16.075C47.2063 16.2344 47.4688 16.2719 47.7031 16.1875C50.6656 15.1187 51.5656 11.8937 51.6031 11.7625C51.6688 11.575 51.6313 11.3687 51.5188 11.2ZM47.5906 14.725L46.4375 13.7875C45.8563 12.2781 44.1781 9.84062 41.3938 10.2344C41.3656 10.2344 41.3375 10.2437 41.3094 10.2531C40.1 10.5812 39.5281 10.8344 39.2281 11.0406C39.0125 11.0406 38.8156 11.125 38.6844 11.2844L37.6813 12.4562C37.4844 12.4656 37.2969 12.55 37.1656 12.7094L26.9938 24.8969L25.925 23.9875L26.2438 23.6125L35.9844 12.1281C36.0969 11.9875 36.1625 11.8187 36.1531 11.6406L36.1438 11.4906L37.1188 10.2531C37.2594 10.075 37.3063 9.86875 37.25 9.65312C37.2406 9.60625 37.175 9.22187 37.3906 8.82812L37.4094 8.8C37.7 8.275 38.4688 6.87812 37.8313 5.74375C37.4 4.98437 36.4813 4.57187 35.0844 4.51562C33.8469 4.46875 32.2531 4.57187 30.8469 4.66562C30.7063 4.675 30.5563 4.68437 30.4063 4.69375C33.5281 3.64375 40.1375 2.22813 44.7125 6.94375C44.7688 7.32812 44.9094 8.05 45.3125 8.77187C45.8469 9.7375 46.9156 10.8719 49.0156 10.8719H49.0344C49.2406 10.9562 49.7375 11.2 50.1594 11.7156C49.8969 12.3812 49.1563 13.9844 47.5906 14.725Z" fill="white" style="mix-blend-mode:hard-light"/>
<path d="M19.4937 36.6531C13.5031 42.6062 12.8375 45.3625 11.1968 47.5562C11.1968 47.5562 10.5593 48.2312 8.95622 47.2281C8.95622 47.2281 4.47497 44.8469 7.30622 42.8875C7.30622 42.8875 11.15 39.4094 14.1781 35.425C14.1781 35.425 18.5093 28.6562 24.8 22.8625L28.25 25.9562C28.25 25.9469 25.9437 30.2312 19.4937 36.6531Z" fill="#5C77FF"/>
<path opacity="0.3" d="M50.15 11.7063C49.8969 12.3813 49.1562 13.9844 47.5906 14.725L46.4375 13.7875C45.8562 12.2781 44.1781 9.84063 41.3937 10.2344C41.3656 10.2344 41.3375 10.2438 41.3094 10.2531C40.1 10.5813 39.5281 10.8344 39.2281 11.0406C39.0125 11.0406 38.8156 11.125 38.6844 11.2844L37.6812 12.4563C37.4844 12.4656 37.2969 12.55 37.1656 12.7094L26.9937 24.8969L25.925 23.9875L26.2437 23.6125C27.2187 24.6438 28.9437 21.7844 31.4937 19.0188C34.0437 16.2531 38.225 8.92188 42.1906 9.025C46.1562 9.12813 45.95 14.0219 47.225 13.2813C48.5 12.5406 48.9969 10.8625 48.9969 10.8625H49.0156C49.2312 10.9469 49.7281 11.1906 50.15 11.7063Z" fill="#485EFF"/>
<defs>
<filter id="filter0_d_2_35" x="0.979614" y="0.823517" width="55.0204" height="53.1765" filterUnits="userSpaceOnUse" color-interpolation-filters="sRGB">
<feFlood flood-opacity="0" result="BackgroundImageFix"/>
<feColorMatrix in="SourceAlpha" type="matrix" values="0 0 0 0 0 0 0 0 0 0 0 0 0 0 0 0 0 0 127 0" result="hardAlpha"/>
<feOffset dy="4"/>
<feGaussianBlur stdDeviation="2"/>
<feComposite in2="hardAlpha" operator="out"/>
<feColorMatrix type="matrix" values="0 0 0 0 0 0 0 0 0 0 0 0 0 0 0 0 0 0 0.25 0"/>
<feBlend mode="normal" in2="BackgroundImageFix" result="effect1_dropShadow_2_35"/>
<feBlend mode="normal" in="SourceGraphic" in2="effect1_dropShadow_2_35" result="shape"/>
</filter>
<linearGradient id="paint0_linear_2_35" x1="28.4898" y1="0.823517" x2="28.4898" y2="46" gradientUnits="userSpaceOnUse">
<stop offset="0.365" stop-color="#0F5CBD"/>
<stop offset="0.57" stop-color="#0B438A"/>
</linearGradient>
</defs>
</svg>
