<svg width="16" height="16" viewBox="0 0 16 16" fill="none" xmlns="http://www.w3.org/2000/svg">
  <path
    d="M5.40189 11.6802C5.92738 11.4009 6.308 11.0416 6.53519 10.5996C6.7664 10.157 6.88231 9.68792 6.88231 9.19368C6.88231 8.68594 6.7716 8.26797 6.54017 7.94927C6.32492 7.63399 6.06957 7.3995 5.77298 7.25066C5.49585 7.09962 5.08016 6.91273 4.52838 6.69022L4.52772 6.68996C4.0513 6.50176 3.71488 6.32507 3.51072 6.1617C3.3213 6.00223 3.22338 5.78095 3.22338 5.48489C3.22338 5.19321 3.30829 4.95362 3.47449 4.75961C3.65475 4.55864 3.87613 4.41156 4.14041 4.31819L4.14041 4.3182L4.14197 4.31762C4.41948 4.21435 4.69561 4.16319 4.97084 4.16319C5.34313 4.16319 5.67755 4.22709 5.97559 4.3531L5.97557 4.35314L5.97849 4.35427C6.28752 4.47369 6.61116 4.662 6.94939 4.92139L7.06914 5.01323L7.10704 4.86714L7.43094 3.61852L7.44988 3.54551L7.38489 3.50724C7.09636 3.33733 6.75252 3.19429 6.35469 3.07715C5.95264 2.95877 5.51915 2.9 5.05481 2.9C4.31355 2.9 3.68996 3.05528 3.19023 3.37269C2.69749 3.67746 2.33201 4.05691 2.09866 4.51207L2.09866 4.51207L2.09801 4.51338C1.87649 4.96147 1.76375 5.40102 1.76375 5.83104C1.76375 6.24306 1.86392 6.59117 2.07171 6.86776L2.07166 6.8678L2.07391 6.87057C2.28071 7.12631 2.51031 7.32496 2.7633 7.46401L2.76327 7.46408L2.76685 7.46586C3.01772 7.59096 3.37999 7.75267 3.85249 7.95074L3.8527 7.95083C4.22674 8.10665 4.51373 8.24467 4.7158 8.3648L4.71574 8.36489L4.71977 8.36704C4.92288 8.47557 5.0869 8.61806 5.21348 8.79455C5.33463 8.96345 5.39868 9.18073 5.39868 9.4533C5.39868 9.90909 5.22501 10.2477 4.87885 10.4831C4.53112 10.7167 4.09199 10.8368 3.55525 10.8368C2.78217 10.8368 2.08157 10.5589 1.45039 9.99675L1.33075 9.8902L1.28759 10.0445L0.903697 11.4167L0.884599 11.485L0.942693 11.5256C1.1804 11.6919 1.51316 11.8275 1.93477 11.9361L1.93521 11.9362C2.36844 12.0457 2.8487 12.1 3.37531 12.1C4.20086 12.1 4.87861 11.9626 5.40189 11.6802ZM5.40189 11.6802C5.40181 11.6803 5.40173 11.6803 5.40165 11.6803L5.35473 11.592M5.40189 11.6802C5.402 11.6802 5.40211 11.6801 5.40223 11.68L5.35473 11.592M5.35473 11.592C4.85087 11.864 4.19107 12 3.37531 12C2.85546 12 2.3836 11.9464 1.95972 11.8393L6.4584 8.00687C6.67434 8.30357 6.78231 8.69918 6.78231 9.19368C6.78231 9.6717 6.67034 10.125 6.44641 10.5536C6.23047 10.9739 5.86658 11.3201 5.35473 11.592ZM8.08931 11.7066L8.08925 11.7067L8.09202 11.7096C8.31003 11.9437 8.6419 12.0505 9.06492 12.0505H9.96466H10.0413L10.0612 11.9766L10.3011 11.0865L10.3351 10.9604H10.2046H9.91667C9.73461 10.9604 9.5853 10.9543 9.46789 10.9424C9.35213 10.9307 9.274 10.9139 9.22717 10.8955C9.16881 10.8632 9.11694 10.7787 9.11694 10.5783C9.11694 10.5409 9.1268 10.442 9.14907 10.273C9.17092 10.1072 9.20376 9.88055 9.24765 9.59268C9.34165 9.02762 9.50473 8.075 9.73692 6.73462H10.9844H11.068L11.0828 6.65235L11.2387 5.78697L11.2599 5.66923H11.1403H9.92734L10.1832 4.17901L10.2054 4.0494L10.0746 4.06259L8.97092 4.17386L8.89562 4.18145L8.88247 4.25598L8.63312 5.66923H7.94925H7.8732L7.85288 5.74251L7.61295 6.6079L7.57782 6.73462H7.70932H8.45443C8.2365 8.00434 8.07218 8.97839 7.96152 9.65663C7.90451 10.006 7.86168 10.2773 7.83309 10.4701C7.81879 10.5665 7.80799 10.6438 7.80073 10.7016C7.79379 10.757 7.78927 10.8006 7.78927 10.8255C7.78927 11.1749 7.88725 11.4712 8.08931 11.7066ZM12.0729 5.66923H11.9884L11.9743 5.75244L10.9426 11.8101L10.9227 11.9269H11.0412H12.1688H12.2532L12.2674 11.8438L12.9957 7.58694C13.1139 7.41045 13.2866 7.24847 13.5179 7.10241L13.5186 7.10193C13.7647 6.94341 13.9819 6.8706 14.1722 6.8706H14.5681H14.6389L14.6624 6.80388L15.0943 5.57998L15.1413 5.4467H15H14.832C14.4979 5.4467 14.1677 5.55289 13.8428 5.75895L13.8418 5.75959C13.5895 5.92379 13.3299 6.15941 13.0627 6.46397L13.1202 5.77759L13.1293 5.66923H13.0206H12.0729Z"
    fill="#AFB1B3" stroke="#AFB1B3" stroke-width="0.2"/>
</svg>
